HIERARCHY
ROOT Hips
{
	OFFSET 0.000000 0.000000 0.000000
	CHANNELS 6 Xposition Yposition Zposition Zrotation Yrotation Xrotation 
	JOINT LHipJoint
	{
		OFFSET 0.000000 0.000000 0.000000
		CHANNELS 3 Zrotation Yrotation Xrotation
		JOINT LeftUpLeg
		{
			OFFSET 1.363060 -1.794630 0.839290
			CHANNELS 3 Zrotation Yrotation Xrotation
			JOINT LeftLeg
			{
				OFFSET 2.448110 -6.726130 0.000000
				CHANNELS 3 Zrotation Yrotation Xrotation
				JOINT LeftFoot
				{
					OFFSET 2.562200 -7.039590 0.000000
					CHANNELS 3 Zrotation Yrotation Xrotation
					JOINT LeftToeBase
					{
						OFFSET 0.157640 -0.433110 2.322550
						CHANNELS 3 Zrotation Yrotation Xrotation
						End Site
						{
							OFFSET 0.000000 0.000000 0.000000
						}
					}
				}
			}
		}
	}
	JOINT RHipJoint
	{
		OFFSET 0.000000 0.000000 0.000000
		CHANNELS 3 Zrotation Yrotation Xrotation
		JOINT RightUpLeg
		{
			OFFSET -1.305520 -1.794630 0.839290
			CHANNELS 3 Zrotation Yrotation Xrotation
			JOINT RightLeg
			{
				OFFSET -2.542530 -6.985550 0.000000
				CHANNELS 3 Zrotation Yrotation Xrotation
				JOINT RightFoot
				{
					OFFSET -2.568260 -7.056230 0.000000
					CHANNELS 3 Zrotation Yrotation Xrotation
					JOINT RightToeBase
					{
						OFFSET -0.164730 -0.452590 2.363150
						CHANNELS 3 Zrotation Yrotation Xrotation
						End Site
						{
							OFFSET 0.000000 0.000000 0.000000
						}
					}
				}
			}
		}
	}
	JOINT LowerBack
	{
		OFFSET 0.000000 0.000000 0.000000
		CHANNELS 3 Zrotation Yrotation Xrotation
		JOINT Spine
		{
			OFFSET 0.028270 2.035590 -0.193380
			CHANNELS 3 Zrotation Yrotation Xrotation
			JOINT Spine1
			{
				OFFSET 0.056720 2.048850 -0.042750
				CHANNELS 3 Zrotation Yrotation Xrotation
				JOINT Neck
				{
					OFFSET 0.000000 0.000000 0.000000
					CHANNELS 3 Zrotation Yrotation Xrotation
					JOINT Neck1
					{
						OFFSET -0.054170 1.746240 0.172020
						CHANNELS 3 Zrotation Yrotation Xrotation
						JOINT Head
						{
							OFFSET 0.104070 1.761360 -0.123970
							CHANNELS 3 Zrotation Yrotation Xrotation
							End Site
							{
								OFFSET 0.000000 0.000000 0.000000
							}
						}
					}
				}
				JOINT LeftShoulder
				{
					OFFSET 0.000000 0.000000 0.000000
					CHANNELS 3 Zrotation Yrotation Xrotation
					JOINT LeftArm
					{
						OFFSET 3.362410 1.200890 -0.311210
						CHANNELS 3 Zrotation Yrotation Xrotation
						JOINT LeftForeArm
						{
							OFFSET 4.983000 -0.000000 -0.000000
							CHANNELS 3 Zrotation Yrotation Xrotation
							JOINT LeftHand
							{
								OFFSET 3.483560 -0.000000 -0.000000
								CHANNELS 3 Zrotation Yrotation Xrotation
								JOINT LeftFingerBase
								{
									OFFSET 0.000000 0.000000 0.000000
									CHANNELS 3 Zrotation Yrotation Xrotation
									JOINT LeftHandIndex1
									{
										OFFSET 0.715260 -0.000000 -0.000000
										CHANNELS 3 Zrotation Yrotation Xrotation
										End Site
										{
											OFFSET 0.000000 0.000000 0.000000
										}
									}
								}
								JOINT LThumb
								{
									OFFSET 0.000000 0.000000 0.000000
									CHANNELS 3 Zrotation Yrotation Xrotation
									End Site
									{
										OFFSET 0.000000 0.000000 0.000000
									}
								}
							}
						}
					}
				}
				JOINT RightShoulder
				{
					OFFSET 0.000000 0.000000 0.000000
					CHANNELS 3 Zrotation Yrotation Xrotation
					JOINT RightArm
					{
						OFFSET -3.136600 1.374050 -0.404650
						CHANNELS 3 Zrotation Yrotation Xrotation
						JOINT RightForeArm
						{
							OFFSET -5.241900 -0.000000 -0.000000
							CHANNELS 3 Zrotation Yrotation Xrotation
							JOINT RightHand
							{
								OFFSET -3.444170 -0.000000 -0.000000
								CHANNELS 3 Zrotation Yrotation Xrotation
								JOINT RightFingerBase
								{
									OFFSET 0.000000 0.000000 0.000000
									CHANNELS 3 Zrotation Yrotation Xrotation
									JOINT RightHandIndex1
									{
										OFFSET -0.622530 -0.000000 -0.000000
										CHANNELS 3 Zrotation Yrotation Xrotation
										End Site
										{
											OFFSET 0.000000 0.000000 0.000000
										}
									}
								}
								JOINT RThumb
								{
									OFFSET 0.000000 0.000000 0.000000
									CHANNELS 3 Zrotation Yrotation Xrotation
									End Site
									{
										OFFSET 0.000000 0.000000 0.000000
									}
								}
							}
						}
					}
				}
			}
		}
	}
}
MOTION
Frames: 7
Frame Time: 0.008333
10.119177 17.915212 -21.527052 -0.305872 0.877393 7.569306 8.919402 6.127618 1.320812 -33.261783 -13.062639 -4.275776 -0.688669 5.499163 22.350651 -0.957189 6.441717 -9.120238 0.394367 -4.028538 -11.157482 -10.388243 -5.221676 1.403275 23.994006 17.249455 -38.679769 -4.030784 -16.722464 45.719249 1.187109 -7.928900 -0.013437 -0.630651 -5.075362 14.124831 -0.720753 -1.140084 2.219325 1.662458 -1.757346 -3.102305 3.408514 -0.530564 -5.272407 -12.680953 -0.795658 -6.979739 5.734760 -0.512150 12.821894 6.634631 -0.920589 5.715073 4.849486 -6.985566 0.919079 -90.304764 0.512257 27.250857 17.808905 -26.017423 -4.339719 0.021716 0.275544 21.358889 10.943374 19.820957 3.679052 -7.125000 0.000000 0.000000 -16.952290 49.080541 -1.834498 -5.109577 6.563891 0.880620 86.721913 -10.211668 21.058132 -11.635413 17.647503 -2.871622 -0.275697 -1.913696 3.950161 -18.675343 22.108970 -7.823052 7.125000 0.000000 0.000000 6.621262 -4.801187 6.085484
10.115719 17.910845 -21.414823 -0.292059 0.977045 7.666845 8.897210 6.150041 1.329259 -33.272832 -12.991642 -3.732339 -0.751722 5.319276 21.965698 -0.963800 6.508929 -9.310048 0.435900 -4.234215 -11.736846 -10.370856 -5.193610 1.395980 23.721893 17.534669 -38.838322 -3.541841 -16.351698 44.079422 1.199779 -8.064782 -0.227074 -0.707752 -5.372887 14.976093 -0.757047 -1.199994 2.175857 1.686648 -1.838458 -3.111058 3.525058 -0.572352 -5.268145 -12.784254 -0.777169 -6.969598 5.809561 -0.480808 12.788793 6.701294 -0.905566 5.690220 4.847777 -6.982485 0.920480 -90.202307 0.330179 27.389842 18.127386 -26.387352 -4.468043 0.116896 0.292733 21.429462 13.402007 17.887130 4.076157 -7.125000 0.000000 0.000000 -13.989470 47.488422 -0.933695 -5.108654 6.543529 0.884373 86.721174 -10.523295 20.819149 -11.603564 17.625807 -2.871023 -0.283598 -1.921875 4.057466 -18.701423 22.331896 -7.903357 7.125000 0.000000 0.000000 6.626785 -4.558561 6.121052
10.111926 17.911119 -21.301131 -0.376096 1.047311 7.814168 8.866486 6.173482 1.336713 -33.155451 -12.923325 -3.214834 -0.829723 5.114058 21.498954 -0.983084 6.608379 -9.451667 0.463269 -4.365036 -12.106072 -10.354689 -5.164927 1.393604 23.515598 17.924072 -38.984919 -3.057650 -15.952820 42.407906 1.229955 -8.295947 -0.513158 -0.796162 -5.687736 15.883059 -0.695030 -1.247094 2.055245 1.717683 -1.900017 -3.116808 3.624348 -0.606546 -5.231060 -12.873926 -0.758689 -6.935015 5.874269 -0.452900 12.742467 6.760494 -0.890467 5.646785 4.847503 -6.978011 0.924281 -90.075013 0.091480 27.552916 18.419131 -26.729075 -4.593986 0.153881 0.296879 21.221383 14.360600 17.137815 4.219832 -7.125000 0.000000 0.000000 -12.850495 46.869241 -0.603603 -5.101067 6.522353 0.888399 86.719442 -10.742246 20.526013 -11.500813 17.513829 -2.842889 -0.282424 -1.927255 4.209798 -18.756067 22.375569 -7.945929 7.125000 0.000000 0.000000 6.593052 -4.498354 6.096995
10.107983 17.913484 -21.186779 -0.504219 1.104336 7.983922 8.831918 6.197381 1.343720 -32.980206 -12.856216 -2.709013 -0.914459 4.897427 20.995361 -1.008079 6.722354 -9.571573 0.484256 -4.462131 -12.380621 -10.339072 -5.135965 1.393443 23.338958 18.360418 -39.126129 -2.575599 -15.541275 40.722112 1.268018 -8.570041 -0.831883 -0.889666 -6.010390 16.815123 -0.588718 -1.288421 1.899877 1.751803 -1.952767 -3.121204 3.715864 -0.637317 -5.179186 -12.957457 -0.740213 -6.889421 5.934429 -0.426540 12.690184 6.816332 -0.875334 5.594979 4.847875 -6.972910 0.929163 -89.936528 -0.172728 27.726843 18.698831 -27.058090 -4.718856 0.164646 0.295149 20.887757 14.643352 16.922181 4.249325 -7.125000 0.000000 0.000000 -12.533254 46.688418 -0.530644 -5.090478 6.500810 0.892548 86.717262 -10.919442 20.208478 -11.366118 17.361174 -2.802348 -0.277162 -1.931374 4.382416 -18.823581 22.338480 -7.971500 7.125000 0.000000 0.000000 6.541633 -4.520336 6.046072
10.104307 17.913505 -21.069495 -0.529557 1.150208 8.132334 8.807485 6.224636 1.350011 -32.922978 -12.730007 -2.158145 -1.000366 4.667526 20.468957 -1.019473 6.776576 -9.671612 0.494372 -4.507972 -12.510389 -10.313910 -5.107581 1.389307 23.034588 18.768775 -39.220174 -2.113205 -15.094037 39.010718 1.321612 -8.915094 -1.098840 -0.896729 -6.035522 16.887524 -0.565661 -1.306611 1.766014 1.762546 -1.973871 -3.122249 3.750766 -0.654542 -5.121042 -12.999235 -0.752482 -6.889161 5.972547 -0.441303 12.646444 6.850620 -0.878305 5.566762 4.844850 -6.971546 0.934389 -89.765339 -0.429373 27.916460 18.965411 -27.365590 -4.838525 0.118611 0.275828 20.590815 13.223084 17.751096 4.003621 -7.125000 0.000000 0.000000 -14.107297 47.351968 -0.865626 -5.087658 6.483954 0.894845 86.811853 -11.040354 19.723545 -11.184335 17.154468 -2.756805 -0.279628 -1.946945 4.577644 -18.929400 22.520012 -8.082931 7.125000 0.000000 0.000000 6.490408 -4.298377 6.025000
10.100518 17.912705 -20.951764 -0.528044 1.197038 8.271392 8.785334 6.252857 1.356066 -32.895581 -12.586732 -1.594638 -1.086160 4.434794 19.938560 -1.028050 6.816398 -9.761548 0.501741 -4.541136 -12.604303 -10.286486 -5.079522 1.384088 22.699705 19.167589 -39.299358 -1.655843 -14.639154 37.295823 1.378399 -9.273012 -1.367853 -0.892347 -6.021178 16.845882 -0.567471 -1.323030 1.641644 1.768853 -1.992563 -3.122399 3.777973 -0.670814 -5.062364 -13.031282 -0.769844 -6.897728 6.004388 -0.462834 12.603927 6.878764 -0.884067 5.542574 4.841385 -6.970636 0.939770 -89.589295 -0.681992 28.105574 19.230344 -27.670512 -4.958065 0.063570 0.252317 20.315323 11.489836 18.722619 3.686452 -7.125000 0.000000 0.000000 -16.019163 48.118366 -1.268561 -5.086206 6.467866 0.897071 86.922695 -11.156253 19.214798 -10.998308 16.943282 -2.712102 -0.283555 -1.964952 4.768559 -19.044704 22.753546 -8.215088 7.125000 0.000000 0.000000 6.439221 -4.018634 6.010819
10.094694 17.905122 -20.833469 -0.353328 1.277974 8.322846 8.775255 6.287952 1.360247 -33.053402 -12.321643 -0.943306 -1.168205 4.188400 19.396579 -1.023762 6.772042 -9.750852 0.492076 -4.497670 -12.481139 -10.246160 -5.054805 1.371578 22.188592 19.488740 -39.264338 -1.230210 -14.147066 35.581313 1.449548 -9.673000 -1.762537 -0.894501 -6.028192 16.866151 -0.752178 -1.358855 1.606468 1.758616 -2.037936 -3.116655 3.806733 -0.699592 -5.008209 -13.009052 -0.798847 -6.941470 5.991998 -0.499332 12.562036 6.863576 -0.893842 5.528987 4.838318 -6.968885 0.946624 -89.408562 -0.893846 28.258241 19.497510 -27.980756 -5.085645 -0.007475 0.204700 20.263825 8.689485 19.674096 2.911353 -7.125000 0.000000 0.000000 -18.982756 48.698669 -1.831190 -5.088795 6.453433 0.901801 87.073217 -11.309730 18.696141 -10.843046 16.772764 -2.688300 -0.292879 -1.994665 4.857891 -19.217436 23.285646 -8.468650 7.125000 0.000000 0.000000 6.388188 -3.409004 6.034568
